<svg width="16" height="16" viewBox="0 0 16 16" fill="none" xmlns="http://www.w3.org/2000/svg">
<path d="M14 3.875H13.875V4V6V6.125H14H15.5C15.5995 6.125 15.6948 6.16451 15.7652 6.23484C15.8355 6.30516 15.875 6.40054 15.875 6.5V9.5C15.875 9.59946 15.8355 9.69484 15.7652 9.76517C15.6948 9.83549 15.5995 9.875 15.5 9.875H14H13.875V10V12V12.125H14H15.5C15.5995 12.125 15.6948 12.1645 15.7652 12.2348C15.8355 12.3052 15.875 12.4005 15.875 12.5V15.5C15.875 15.5995 15.8355 15.6948 15.7652 15.7652C15.6948 15.8355 15.5995 15.875 15.5 15.875H0.5C0.400544 15.875 0.305161 15.8355 0.234835 15.7652C0.164509 15.6948 0.125 15.5995 0.125 15.5V12.5C0.125 12.4005 0.164509 12.3052 0.234835 12.2348C0.305161 12.1645 0.400544 12.125 0.5 12.125H2H2.125V12V10V9.875H2H0.5C0.400544 9.875 0.305161 9.83549 0.234835 9.76517C0.164509 9.69484 0.125 9.59946 0.125 9.5V6.5C0.125 6.40054 0.164509 6.30516 0.234835 6.23484C0.305161 6.16451 0.400544 6.125 0.5 6.125H2H2.125V6V4V3.875H2H0.5C0.400544 3.875 0.305161 3.83549 0.234835 3.76516C0.164509 3.69484 0.125 3.59946 0.125 3.5V0.5C0.125 0.400544 0.164509 0.305161 0.234835 0.234835C0.305161 0.164509 0.400544 0.125 0.5 0.125H15.5C15.5995 0.125 15.6948 0.164509 15.7652 0.234835C15.8355 0.305161 15.875 0.400544 15.875 0.5V3.5C15.875 3.59946 15.8355 3.69484 15.7652 3.76516C15.6948 3.83549 15.5995 3.875 15.5 3.875H14ZM3 3.875H2.875V4V6V6.125H3H7.5H7.625V6V4V3.875H7.5H3ZM8.5 3.875H8.375V4V6V6.125H8.5H13H13.125V6V4V3.875H13H8.5ZM3 9.875H2.875V10V12V12.125H3H7.5H7.625V12V10V9.875H7.5H3ZM8.5 9.875H8.375V10V12V12.125H8.5H13H13.125V12V10V9.875H13H8.5ZM1 0.875H0.875V1V3V3.125H1H4.5H4.625V3V1V0.875H4.5H1ZM5.5 0.875H5.375V1V3V3.125H5.5H10.5H10.625V3V1V0.875H10.5H5.5ZM11.5 0.875H11.375V1V3V3.125H11.5H15H15.125V3V1V0.875H15H11.5ZM1 6.875H0.875V7V9V9.125H1H4.5H4.625V9V7V6.875H4.5H1ZM5.5 6.875H5.375V7V9V9.125H5.5H10.5H10.625V9V7V6.875H10.5H5.5ZM11.5 6.875H11.375V7V9V9.125H11.5H15H15.125V9V7V6.875H15H11.5ZM1 12.875H0.875V13V15V15.125H1H4.5H4.625V15V13V12.875H4.5H1ZM5.5 12.875H5.375V13V15V15.125H5.5H10.5H10.625V15V13V12.875H10.5H5.5ZM11.5 12.875H11.375V13V15V15.125H11.5H15H15.125V15V13V12.875H15H11.5Z" fill="white" stroke="black" stroke-width="0.25"/>
</svg>
